<svg xmlns="http://www.w3.org/2000/svg" width="32" height="32" viewBox="0 0 32 32" fill="none">
  <rect width="32" height="32" rx="16" fill="#3B82F6"/>
  <path d="M10 16.5C10 15.6716 10.6716 15 11.5 15H20.5C21.3284 15 22 15.6716 22 16.5C22 17.3284 21.3284 18 20.5 18H11.5C10.6716 18 10 17.3284 10 16.5Z" fill="white"/>
  <path d="M10 11.5C10 10.6716 10.6716 10 11.5 10H20.5C21.3284 10 22 10.6716 22 11.5C22 12.3284 21.3284 13 20.5 13H11.5C10.6716 13 10 12.3284 10 11.5Z" fill="white"/>
  <path d="M10 21.5C10 20.6716 10.6716 20 11.5 20H20.5C21.3284 20 22 20.6716 22 21.5C22 22.3284 21.3284 23 20.5 23H11.5C10.6716 23 10 22.3284 10 21.5Z" fill="white"/>
</svg>